<svg width="70" height="64" viewBox="0 0 70 64" fill="none" xmlns="http://www.w3.org/2000/svg">
<g id="warning-sign 1">
<path id="Vector" d="M6.45386 62C2.84449 62 1.20386 59.6 2.84449 56.7L32.0476 4.19999C33.6882 1.29999 36.3132 1.29999 37.9539 4.19999L67.157 56.7C68.7976 59.6 67.157 62 63.5476 62H6.45386Z" fill="#FFCE31"/>
<g id="Group">
<path id="Vector_2" d="M30.4058 23.6L33.4683 42.1C33.7965 43.9 36.3121 43.9 36.6402 42.1L39.5933 23.6C40.1402 16.4 29.859 16.4 30.4058 23.6Z" fill="#231F20"/>
<path id="Vector_3" d="M35 53.8C37.5371 53.8 39.5938 51.9196 39.5938 49.6C39.5938 47.2804 37.5371 45.4 35 45.4C32.4629 45.4 30.4062 47.2804 30.4062 49.6C30.4062 51.9196 32.4629 53.8 35 53.8Z" fill="#231F20"/>
</g>
</g>
</svg>
